<?xml version="1.0" encoding="UTF-8"?>
<svg xmlns="http://www.w3.org/2000/svg">
    <symbol id="search" width="24" height="24" viewBox="0 0 24 24" fill="none" xmlns="http://www.w3.org/2000/svg">
        <path fill-rule="evenodd" clip-rule="evenodd"
            d="M10.1408 17.2906C11.726 17.2906 13.1906 16.7737 14.3754 15.8992L19.0696 20.6638C19.5067 21.1076 20.2206 21.1127 20.6641 20.6752C21.1075 20.2378 21.1126 19.5235 20.6754 19.0797L15.9575 14.291C16.7911 13.1219 17.2816 11.6909 17.2816 10.1453C17.2816 6.19906 14.0845 3 10.1408 3C6.19704 3 3 6.19906 3 10.1453C3 14.0916 6.19704 17.2906 10.1408 17.2906ZM10.1408 15.0342C12.8391 15.0342 15.0266 12.8454 15.0266 10.1453C15.0266 7.44525 12.8391 5.25641 10.1408 5.25641C7.44243 5.25641 5.25499 7.44525 5.25499 10.1453C5.25499 12.8454 7.44243 15.0342 10.1408 15.0342Z"
            fill="black" />
    </symbol>
</svg>
